# Blender 5.1.0
# www.blender.org
mtllib compass.mtl
g Cylinder_Cylinder
v 0.000000 0.000000 -0.038100
v 0.000000 0.012700 -0.034980
v 0.026941 0.000000 -0.026941
v 0.024735 0.012700 -0.024735
v 0.038100 0.000000 0.000000
v 0.034980 0.012700 0.000000
v 0.026941 0.000000 0.026941
v 0.024735 0.012700 0.024735
v 0.000000 0.000000 0.038100
v 0.000000 0.012700 0.034980
v -0.026941 0.000000 0.026941
v -0.024735 0.012700 0.024735
v -0.038100 0.000000 0.000000
v -0.034980 0.012700 0.000000
v -0.026941 0.000000 -0.026941
v -0.024735 0.012700 -0.024735
v 0.026941 0.012700 -0.026941
v 0.000000 0.012700 -0.038100
v 0.038100 0.012700 0.000000
v 0.026941 0.012700 0.026941
v 0.000000 0.012700 0.038100
v -0.026941 0.012700 0.026941
v -0.038100 0.012700 0.000000
v -0.026941 0.012700 -0.026941
v 0.024735 0.005911 -0.024735
v 0.000000 0.005911 -0.034980
v 0.034980 0.005911 0.000000
v 0.024735 0.005911 0.024735
v 0.000000 0.005911 0.034980
v -0.024735 0.005911 0.024735
v -0.034980 0.005911 0.000000
v -0.024735 0.005911 -0.024735
vn -0.0000 -0.0000 -1.0000
vn 0.7071 -0.0000 -0.7071
vn 1.0000 -0.0000 -0.0000
vn 0.7071 -0.0000 0.7071
vn -0.0000 -0.0000 1.0000
vn -0.7071 -0.0000 0.7071
vn -1.0000 -0.0000 -0.0000
vn -0.7071 -0.0000 -0.7071
vn -0.0000 -1.0000 -0.0000
vn -0.0000 1.0000 -0.0000
vt 0.981084 0.109551
vt 0.860813 0.040134
vt 0.981084 0.040134
vt 0.860813 0.109551
vt 0.740542 0.040134
vt 0.740542 0.109551
vt 0.620271 0.040134
vt 0.620271 0.109551
vt 0.500000 0.040134
vt 0.500000 0.109551
vt 0.379729 0.040134
vt 0.379729 0.109551
vt 0.259458 0.040134
vt 0.739238 0.183172
vt 0.619801 0.152886
vt 0.619801 0.183172
vt 0.259458 0.109551
vt 0.139187 0.040134
vt 0.139187 0.109551
vt 0.018916 0.040134
vt 0.925596 0.285250
vt 0.684513 0.285250
vt 0.684513 0.526334
vt 0.921018 0.914289
vt 0.806276 0.976289
vt 0.806276 0.961817
vt 0.968546 0.799547
vt 0.931251 0.924522
vt 0.921018 0.684804
vt 0.983018 0.799547
vt 0.806276 0.637276
vt 0.931251 0.674571
vt 0.691533 0.684804
vt 0.806276 0.622804
vt 0.644005 0.799547
vt 0.681300 0.674571
vt 0.691533 0.914289
vt 0.629533 0.799547
vt 0.681300 0.924522
vt 0.978112 0.183172
vt 0.858675 0.152886
vt 0.858675 0.183172
vt 0.142052 0.183172
vt 0.022615 0.152886
vt 0.022615 0.183172
vt 0.380926 0.183172
vt 0.261489 0.152886
vt 0.261489 0.183172
vt 0.500364 0.152886
vt 0.500364 0.183172
vt 0.739238 0.152886
vt 0.142052 0.152886
vt 0.380926 0.152886
vt 0.469743 0.535903
vt 0.546087 0.720215
vt 0.024775 0.720215
vt 0.903645 0.705347
vt 0.943182 0.800797
vt 0.673206 0.800797
vt 0.018916 0.109551
vt 0.805054 0.576264
vt 0.925596 0.526334
vt 0.975526 0.405792
vt 0.805054 0.235321
vt 0.634583 0.405792
vt 0.978112 0.152886
vt 0.469743 0.904527
vt 0.285431 0.980871
vt 0.101119 0.904527
vt 0.101119 0.535903
vt 0.285431 0.459559
vt 0.903645 0.896248
vt 0.808194 0.935786
vt 0.712743 0.896248
vt 0.712743 0.705347
vt 0.808194 0.665809
s 1
usemtl CompassAlbedo
f 18/1/1 3/2/2 1/3/1
f 17/4/2 5/5/3 3/2/2
f 19/6/3 7/7/4 5/5/3
f 20/8/4 9/9/5 7/7/4
f 21/10/5 11/11/6 9/9/5
f 22/12/6 13/13/7 11/11/6
f 6/14/7 28/15/8 8/16/8
f 23/17/7 15/18/8 13/13/7
f 24/19/8 1/20/1 15/18/8
f 7/21/9 11/22/9 15/23/9
f 4/24/10 18/25/10 2/26/10
f 6/27/10 17/28/10 4/24/10
f 8/29/10 19/30/10 6/27/10
f 10/31/10 20/32/10 8/29/10
f 12/33/10 21/34/10 10/31/10
f 14/35/10 22/36/10 12/33/10
f 16/37/10 23/38/10 14/35/10
f 2/26/10 24/39/10 16/37/10
f 2/40/5 25/41/6 4/42/6
f 16/43/4 26/44/5 2/45/5
f 12/46/2 31/47/3 14/48/3
f 8/16/8 29/49/1 10/50/1
f 4/42/6 27/51/7 6/14/7
f 14/48/3 32/52/4 16/43/4
f 10/50/1 30/53/2 12/46/2
f 28/54/10 27/55/10 31/56/10
f 18/1/1 17/4/2 3/2/2
f 17/4/2 19/6/3 5/5/3
f 19/6/3 20/8/4 7/7/4
f 20/8/4 21/10/5 9/9/5
f 21/10/5 22/12/6 11/11/6
f 22/12/6 23/17/7 13/13/7
f 6/14/7 27/51/7 28/15/8
f 23/17/7 24/19/8 15/18/8
f 24/19/8 18/60/1 1/20/1
f 15/23/9 1/61/9 3/62/9
f 3/62/9 5/63/9 7/21/9
f 7/21/9 9/64/9 11/22/9
f 11/22/9 13/65/9 15/23/9
f 15/23/9 3/62/9 7/21/9
f 4/24/10 17/28/10 18/25/10
f 6/27/10 19/30/10 17/28/10
f 8/29/10 20/32/10 19/30/10
f 10/31/10 21/34/10 20/32/10
f 12/33/10 22/36/10 21/34/10
f 14/35/10 23/38/10 22/36/10
f 16/37/10 24/39/10 23/38/10
f 2/26/10 18/25/10 24/39/10
f 2/40/5 26/66/5 25/41/6
f 16/43/4 32/52/4 26/44/5
f 12/46/2 30/53/2 31/47/3
f 8/16/8 28/15/8 29/49/1
f 4/42/6 25/41/6 27/51/7
f 14/48/3 31/47/3 32/52/4
f 10/50/1 29/49/1 30/53/2
f 27/55/10 25/67/10 26/68/10
f 26/68/10 32/69/10 27/55/10
f 32/69/10 31/56/10 27/55/10
f 31/56/10 30/70/10 29/71/10
f 29/71/10 28/54/10 31/56/10
usemtl GlassMaterial
f 8/57/10 6/58/10 14/59/10
f 6/58/10 4/72/10 2/73/10
f 2/73/10 16/74/10 6/58/10
f 16/74/10 14/59/10 6/58/10
f 14/59/10 12/75/10 10/76/10
f 10/76/10 8/57/10 14/59/10
g Needle_Cylinder.001
v 0.002279 0.005911 -0.002279
v 0.000000 0.005911 -0.003223
v 0.003223 0.005911 0.000000
v 0.002279 0.005911 0.002279
v 0.000000 0.005911 0.003223
v -0.002279 0.005911 0.002279
v -0.003223 0.005911 0.000000
v -0.002279 0.005911 -0.002279
v 0.002279 0.008369 -0.002279
v 0.000000 0.007647 -0.003223
v 0.003223 0.008369 0.000000
v 0.002279 0.008369 0.002279
v 0.000000 0.007647 0.003223
v -0.002279 0.008369 0.002279
v -0.003223 0.008369 0.000000
v -0.002279 0.008369 -0.002279
v 0.000000 0.009092 -0.003223
v 0.000000 0.009092 0.003223
v 0.002279 0.010678 -0.002279
v 0.000000 0.010678 -0.003223
v 0.003223 0.010678 0.000000
v 0.002279 0.010678 0.002279
v 0.000000 0.010678 0.003223
v -0.002279 0.010678 0.002279
v -0.003223 0.010678 0.000000
v -0.002279 0.010678 -0.002279
v 0.000000 0.008369 -0.023128
v 0.000000 0.008369 0.023128
vn -0.7071 -0.0000 -0.7071
vn -0.0000 -0.0000 -1.0000
vn -0.7071 -0.0000 0.7071
vn -1.0000 -0.0000 -0.0000
vn 0.7071 -0.0000 0.7071
vn -0.0000 -0.0000 1.0000
vn 0.7071 -0.0000 -0.7071
vn 1.0000 -0.0000 -0.0000
vn -0.7357 -0.0000 -0.6773
vn -0.7357 -0.0000 0.6773
vn 0.7357 -0.0000 0.6773
vn 0.7357 -0.0000 -0.6773
vn -0.3148 -0.9485 0.0344
vn -0.0000 -0.9993 0.0363
vn -0.0000 1.0000 -0.0000
vn 0.3148 0.9485 0.0344
vn -0.0000 0.9993 0.0363
vn -0.0000 0.9993 -0.0363
vn 0.3148 0.9485 -0.0344
vn -0.3148 0.9485 -0.0344
vn 0.3148 -0.9485 0.0344
vn -0.3148 0.9485 0.0344
vn 0.3148 -0.9485 -0.0344
vn -0.0000 -0.9993 -0.0363
vn -0.3148 -0.9485 -0.0344
vt 0.316133 0.313452
vt 0.294923 0.328374
vt 0.294923 0.313452
vt 0.188873 0.313452
vt 0.167663 0.334583
vt 0.167663 0.313452
vt 0.231293 0.313452
vt 0.210083 0.328374
vt 0.210083 0.313452
vt 0.273713 0.313452
vt 0.252503 0.334583
vt 0.252503 0.313452
vt 0.337343 0.313452
vt 0.316133 0.334583
vt 0.188873 0.334583
vt 0.231293 0.334583
vt 0.273713 0.334583
vt 0.337343 0.334583
vt 0.316133 0.354433
vt 0.558761 0.436825
vt 0.581622 0.427356
vt 0.581622 0.227713
vt 0.423535 0.311082
vt 0.433005 0.333943
vt 0.368344 0.333943
vt 0.210083 0.340793
vt 0.188873 0.354433
vt 0.231293 0.354433
vt 0.294923 0.340793
vt 0.273713 0.354433
vt 0.294923 0.354433
vt 0.167663 0.354433
vt 0.210083 0.354433
vt 0.252503 0.354433
vt 0.604483 0.436825
vt 0.581622 0.492016
vt 0.604483 0.482547
vt 0.581622 0.691658
vt 0.558761 0.482547
vt 0.337343 0.354433
vt 0.423535 0.356803
vt 0.400674 0.366273
vt 0.377813 0.356803
vt 0.377813 0.311082
vt 0.400674 0.301612
s 1
usemtl CompassAlbedo
f 40/77/11 42/78/12 34/79/12
f 38/80/13 47/81/14 39/82/14
f 36/83/15 45/84/16 37/85/16
f 33/86/17 43/87/18 35/88/18
f 39/89/14 48/90/19 40/77/11
f 38/80/13 45/84/16 46/91/20
f 35/88/18 44/92/21 36/83/15
f 33/86/17 42/78/12 41/93/22
f 47/94/14 58/95/11 48/90/19
f 46/96/23 45/97/24 60/98/24
f 54/99/25 53/100/25 57/101/25
f 50/102/16 56/103/13 46/91/20
f 43/87/18 54/104/15 44/92/21
f 49/105/12 51/106/17 41/93/22
f 49/105/12 58/95/11 52/107/12
f 46/91/20 57/108/14 47/81/14
f 50/102/16 54/104/15 55/109/16
f 41/93/22 53/110/18 43/87/18
f 44/111/26 50/97/27 60/98/27
f 49/112/28 41/113/29 59/114/28
f 48/115/30 49/112/28 59/114/28
f 45/97/24 44/111/31 60/98/24
f 50/97/27 46/96/32 60/98/27
f 41/113/33 42/112/34 59/114/34
f 42/112/34 48/115/35 59/114/34
f 40/77/11 48/90/19 42/78/12
f 38/80/13 46/91/20 47/81/14
f 36/83/15 44/92/21 45/84/16
f 33/86/17 41/93/22 43/87/18
f 39/89/14 47/94/14 48/90/19
f 38/80/13 37/85/16 45/84/16
f 35/88/18 43/87/18 44/92/21
f 33/86/17 34/79/12 42/78/12
f 47/94/14 57/116/14 58/95/11
f 53/100/25 51/117/25 52/118/25
f 52/118/25 58/119/25 53/100/25
f 58/119/25 57/101/25 53/100/25
f 57/101/25 56/120/25 55/121/25
f 55/121/25 54/99/25 57/101/25
f 50/102/16 55/109/16 56/103/13
f 43/87/18 53/110/18 54/104/15
f 49/105/12 52/107/12 51/106/17
f 49/105/12 48/90/19 58/95/11
f 46/91/20 56/103/13 57/108/14
f 50/102/16 44/92/21 54/104/15
f 41/93/22 51/106/17 53/110/18
